<?xml version="1.0" encoding="UTF-8"?>
<!DOCTYPE svg PUBLIC "-//W3C//DTD SVG 1.1//EN" "http://www.w3.org/Graphics/SVG/1.1/DTD/svg11.dtd">
<!-- Creator: CorelDRAW 2020 (64-Bit) -->
<svg xmlns="http://www.w3.org/2000/svg" xml:space="preserve" width="91.5195mm" height="92.1528mm" version="1.1" style="shape-rendering:geometricPrecision; text-rendering:geometricPrecision; image-rendering:optimizeQuality; fill-rule:evenodd; clip-rule:evenodd"
viewBox="0 0 715.23 720.18"
 xmlns:xlink="http://www.w3.org/1999/xlink"
 xmlns:xodm="http://www.corel.com/coreldraw/odm/2003">
 <defs>
  <style type="text/css">
   <![CDATA[
    .str0 {stroke:black;stroke-width:0.6;stroke-miterlimit:22.9256}
    .fil0 {fill:none;fill-rule:nonzero}
   ]]>
  </style>
 </defs>
 <g id="Capa_x0020_1">
  <metadata id="CorelCorpID_0Corel-Layer"/>
  <g>
   <path class="fil0 str0" d="M0.29 528.27l23.14 0 0 -95.81 -23.14 0 0 -95.48 23.14 0 0 -95.81 -23.14 0 0 -95.81 23.14 0 0 -95.81 -23.14 0 0 -49.27m23.14 719.59l0 -95.81 -23.14 0 0 -95.81"/>
  </g>
  <g>
   <polyline class="fil0 str0" points="0.29,0.29 714.94,0.29 714.94,49.56 691.8,49.56 691.8,145.04 714.94,145.04 714.94,240.85 691.8,240.85 691.8,336.66 714.94,336.66 714.94,432.46 691.8,432.46 691.8,528.27 714.94,528.27 714.94,623.75 691.8,623.75 691.8,719.56 23.43,719.56 "/>
  </g>
 </g>
</svg>
