<?xml version="1.0" encoding="UTF-8"?>
<!DOCTYPE svg PUBLIC "-//W3C//DTD SVG 1.1//EN" "http://www.w3.org/Graphics/SVG/1.1/DTD/svg11.dtd">
<!-- Creator: CorelDRAW 2020 (64-Bit) -->
<svg xmlns="http://www.w3.org/2000/svg" xml:space="preserve" width="400.334mm" height="112.68mm" version="1.1" style="shape-rendering:geometricPrecision; text-rendering:geometricPrecision; image-rendering:optimizeQuality; fill-rule:evenodd; clip-rule:evenodd"
viewBox="0 0 22649.88 6375.12"
 xmlns:xlink="http://www.w3.org/1999/xlink"
 xmlns:xodm="http://www.corel.com/coreldraw/odm/2003">
 <defs>
  <style type="text/css">
   <![CDATA[
    .str0 {stroke:#373435;stroke-width:11.32;stroke-miterlimit:22.9256}
    .str1 {stroke:#F7ADAF;stroke-width:4.31;stroke-miterlimit:22.9256}
    .fil0 {fill:none}
   ]]>
  </style>
 </defs>
 <g id="Capa_x0020_1">
  <metadata id="CorelCorpID_0Corel-Layer"/>
  <rect class="fil0 str0" x="5.66" y="5.66" width="22638.57" height="6363.8"/>
  <path class="fil0 str1" d="M5495.57 5.66c0,2121.27 0,4242.54 0,6363.8"/>
  <path class="fil0 str1" d="M11155.21 5.66c0,2121.27 0,4242.54 0,6363.8"/>
  <path class="fil0 str1" d="M16814.85 5.66c0,2121.27 0,4242.54 0,6363.8"/>
  <path class="fil0 str1" d="M22474.49 5.66c0,2121.27 0,4242.54 0,6363.8"/>
  <path class="fil0 str1" d="M175.39 6369.46c0,-2121.27 0,-4242.54 0,-6363.8"/>
  <path class="fil0 str1" d="M5835.03 6369.46c0,-2121.27 0,-4242.54 0,-6363.8"/>
  <path class="fil0 str1" d="M11494.67 6369.46c0,-2121.27 0,-4242.54 0,-6363.8"/>
  <path class="fil0 str1" d="M17154.32 6369.46c0,-2121.27 0,-4242.54 0,-6363.8"/>
 </g>
</svg>
