<?xml version="1.0" encoding="UTF-8"?>
<!DOCTYPE svg PUBLIC "-//W3C//DTD SVG 1.1//EN" "http://www.w3.org/Graphics/SVG/1.1/DTD/svg11.dtd">
<!-- Creator: CorelDRAW 2020 (64-Bit) -->
<svg xmlns="http://www.w3.org/2000/svg" xml:space="preserve" width="544.209mm" height="92.2153mm" version="1.1" style="shape-rendering:geometricPrecision; text-rendering:geometricPrecision; image-rendering:optimizeQuality; fill-rule:evenodd; clip-rule:evenodd"
viewBox="0 0 45589.51 7725.06"
 xmlns:xlink="http://www.w3.org/1999/xlink"
 xmlns:xodm="http://www.corel.com/coreldraw/odm/2003">
 <defs>
  <style type="text/css">
   <![CDATA[
    .str0 {stroke:#373435;stroke-width:16.75;stroke-miterlimit:22.9256}
    .str1 {stroke:black;stroke-width:6.38;stroke-miterlimit:22.9256}
    .fil0 {fill:none}
    .fil1 {fill:none;fill-rule:nonzero}
   ]]>
  </style>
 </defs>
 <g id="Capa_x0020_1">
  <metadata id="CorelCorpID_0Corel-Layer"/>
  <rect class="fil0 str0" x="38391.49" y="8.38" width="7189.64" height="7262.26"/>
  <g>
   <path class="fil1 str1" d="M22436.16 5667.95l248.02 0 0 -1026.99 -248.02 0 0 -1023.5 248.02 0 0 -1026.99 -248.02 0 0 -1026.99 248.02 0 0 -1026.99 -248.02 0 0 -528.12 -7262.26 0m-248.02 7713.54l7758.29 0 0 -1026.99 -248.02 0 0 -1026.99"/>
  </g>
  <g>
   <polyline class="fil1 str1" points="7513.42,5667.95 7761.44,5667.95 7761.44,4640.96 7513.42,4640.96 7513.42,3617.46 7761.44,3617.46 7761.44,2590.47 7513.42,2590.47 7513.42,1563.49 7761.44,1563.49 7761.44,536.5 7513.42,536.5 7513.42,8.38 251.16,8.38 251.16,536.5 3.14,536.5 3.14,1563.49 251.16,1563.49 251.16,2590.47 3.14,2590.47 3.14,3617.46 251.16,3617.46 251.16,4640.96 3.14,4640.96 3.14,5667.95 251.16,5667.95 251.16,6694.93 3.14,6694.93 3.14,7721.92 7761.44,7721.92 7761.44,6694.93 7513.42,6694.93 7513.42,5667.95 "/>
  </g>
  <g>
   <path class="fil1 str1" d="M15173.9 5667.94l-248.02 0 0 -1026.99 248.02 0 0 -1026.99 -248.02 0 0 -1026.98 248.02 0 0 -1026.99 -248.02 0 0 -1023.49 248.02 0 0 -528.13 -7660.48 0m248.01 7710.04l7164.46 0 0 -1026.99 248.02 0 0 -1023.49"/>
  </g>
  <g>
   <polyline class="fil1 str1" points="22436.16,8.38 30096.65,8.38 30096.65,536.51 29848.64,536.51 29848.64,1560 30096.65,1560 30096.65,2586.99 29848.64,2586.99 29848.64,3613.97 30096.65,3613.97 30096.65,4640.95 29848.64,4640.95 29848.64,5667.94 30096.65,5667.94 30096.65,6691.43 29848.64,6691.43 29848.64,7718.42 22684.18,7718.42 "/>
  </g>
  <rect class="fil0 str0" x="30423.35" y="8.37" width="7607.92" height="7607.92"/>
  <circle class="fil0 str0" cx="31165.99" cy="751" r="495.09"/>
  <circle class="fil0 str0" cx="38924.98" cy="578.17" r="375.51"/>
  <circle class="fil0 str0" cx="32391.33" cy="751" r="495.09"/>
  <circle class="fil0 str0" cx="40150.32" cy="578.17" r="375.51"/>
  <circle class="fil0 str0" cx="33615.66" cy="751" r="495.09"/>
  <circle class="fil0 str0" cx="41374.65" cy="578.17" r="375.51"/>
  <circle class="fil0 str0" cx="34839.99" cy="751" r="495.09"/>
  <circle class="fil0 str0" cx="42598.98" cy="578.17" r="375.51"/>
  <circle class="fil0 str0" cx="36064.33" cy="751" r="495.09"/>
  <circle class="fil0 str0" cx="43823.32" cy="578.17" r="375.51"/>
  <circle class="fil0 str0" cx="37288.65" cy="751" r="495.09"/>
  <circle class="fil0 str0" cx="45047.64" cy="578.17" r="375.51"/>
  <circle class="fil0 str0" transform="matrix(6.87895E-14 -2.59735 2.59735 6.87895E-14 31166 6873.66)" r="190.61"/>
  <circle class="fil0 str0" transform="matrix(5.21745E-14 -1.97 1.97 5.21745E-14 38925 6700.83)" r="190.61"/>
  <circle class="fil0 str0" transform="matrix(6.87895E-14 -2.59735 2.59735 6.87895E-14 32391.3 6873.66)" r="190.61"/>
  <circle class="fil0 str0" transform="matrix(5.21745E-14 -1.97 1.97 5.21745E-14 40150.3 6700.83)" r="190.61"/>
  <circle class="fil0 str0" transform="matrix(6.87895E-14 -2.59735 2.59735 6.87895E-14 33615.7 6873.66)" r="190.61"/>
  <circle class="fil0 str0" transform="matrix(5.21745E-14 -1.97 1.97 5.21745E-14 41374.6 6700.83)" r="190.61"/>
  <circle class="fil0 str0" transform="matrix(6.87895E-14 -2.59735 2.59735 6.87895E-14 34840 6873.66)" r="190.61"/>
  <circle class="fil0 str0" transform="matrix(5.21745E-14 -1.97 1.97 5.21745E-14 42599 6700.83)" r="190.61"/>
  <circle class="fil0 str0" transform="matrix(6.87895E-14 -2.59735 2.59735 6.87895E-14 36064.3 6873.66)" r="190.61"/>
  <circle class="fil0 str0" transform="matrix(5.21745E-14 -1.97 1.97 5.21745E-14 43823.3 6700.83)" r="190.61"/>
  <circle class="fil0 str0" transform="matrix(6.87895E-14 -2.59735 2.59735 6.87895E-14 37288.6 6873.66)" r="190.61"/>
  <circle class="fil0 str0" transform="matrix(5.21745E-14 -1.97 1.97 5.21745E-14 45047.6 6700.83)" r="190.61"/>
  <circle class="fil0 str0" transform="matrix(6.87895E-14 -2.59735 2.59735 6.87895E-14 31166 5648.33)" r="190.61"/>
  <circle class="fil0 str0" transform="matrix(5.21745E-14 -1.97 1.97 5.21745E-14 38925 5475.5)" r="190.61"/>
  <circle class="fil0 str0" transform="matrix(6.87895E-14 -2.59735 2.59735 6.87895E-14 32391.3 5648.33)" r="190.61"/>
  <circle class="fil0 str0" transform="matrix(5.21745E-14 -1.97 1.97 5.21745E-14 40150.3 5475.5)" r="190.61"/>
  <circle class="fil0 str0" transform="matrix(6.87895E-14 -2.59735 2.59735 6.87895E-14 33615.7 5648.33)" r="190.61"/>
  <circle class="fil0 str0" transform="matrix(5.21745E-14 -1.97 1.97 5.21745E-14 41374.6 5475.5)" r="190.61"/>
  <circle class="fil0 str0" transform="matrix(6.87895E-14 -2.59735 2.59735 6.87895E-14 34840 5648.33)" r="190.61"/>
  <circle class="fil0 str0" transform="matrix(5.21745E-14 -1.97 1.97 5.21745E-14 42599 5475.5)" r="190.61"/>
  <circle class="fil0 str0" transform="matrix(6.87895E-14 -2.59735 2.59735 6.87895E-14 36064.3 5648.33)" r="190.61"/>
  <circle class="fil0 str0" transform="matrix(5.21745E-14 -1.97 1.97 5.21745E-14 43823.3 5475.5)" r="190.61"/>
  <circle class="fil0 str0" transform="matrix(6.87895E-14 -2.59735 2.59735 6.87895E-14 37288.6 5648.33)" r="190.61"/>
  <circle class="fil0 str0" transform="matrix(5.21745E-14 -1.97 1.97 5.21745E-14 45047.6 5475.5)" r="190.61"/>
  <circle class="fil0 str0" transform="matrix(6.87895E-14 -2.59735 2.59735 6.87895E-14 31166 4424)" r="190.61"/>
  <circle class="fil0 str0" transform="matrix(5.21745E-14 -1.97 1.97 5.21745E-14 38925 4251.17)" r="190.61"/>
  <circle class="fil0 str0" transform="matrix(6.87895E-14 -2.59735 2.59735 6.87895E-14 32391.3 4424)" r="190.61"/>
  <circle class="fil0 str0" transform="matrix(5.21745E-14 -1.97 1.97 5.21745E-14 40150.3 4251.17)" r="190.61"/>
  <circle class="fil0 str0" transform="matrix(6.87895E-14 -2.59735 2.59735 6.87895E-14 33615.7 4424)" r="190.61"/>
  <circle class="fil0 str0" transform="matrix(5.21745E-14 -1.97 1.97 5.21745E-14 41374.6 4251.17)" r="190.61"/>
  <circle class="fil0 str0" transform="matrix(6.87895E-14 -2.59735 2.59735 6.87895E-14 34840 4424)" r="190.61"/>
  <circle class="fil0 str0" transform="matrix(5.21745E-14 -1.97 1.97 5.21745E-14 42599 4251.17)" r="190.61"/>
  <circle class="fil0 str0" transform="matrix(6.87895E-14 -2.59735 2.59735 6.87895E-14 36064.3 4424)" r="190.61"/>
  <circle class="fil0 str0" transform="matrix(5.21745E-14 -1.97 1.97 5.21745E-14 43823.3 4251.17)" r="190.61"/>
  <circle class="fil0 str0" transform="matrix(6.87895E-14 -2.59735 2.59735 6.87895E-14 37288.6 4424)" r="190.61"/>
  <circle class="fil0 str0" transform="matrix(5.21745E-14 -1.97 1.97 5.21745E-14 45047.6 4251.17)" r="190.61"/>
  <circle class="fil0 str0" transform="matrix(6.87895E-14 -2.59735 2.59735 6.87895E-14 31166 3199.67)" r="190.61"/>
  <circle class="fil0 str0" transform="matrix(5.21745E-14 -1.97 1.97 5.21745E-14 38925 3026.83)" r="190.61"/>
  <circle class="fil0 str0" transform="matrix(6.87895E-14 -2.59735 2.59735 6.87895E-14 32391.3 3199.67)" r="190.61"/>
  <circle class="fil0 str0" transform="matrix(5.21745E-14 -1.97 1.97 5.21745E-14 40150.3 3026.83)" r="190.61"/>
  <circle class="fil0 str0" transform="matrix(6.87895E-14 -2.59735 2.59735 6.87895E-14 33615.7 3199.67)" r="190.61"/>
  <circle class="fil0 str0" transform="matrix(5.21745E-14 -1.97 1.97 5.21745E-14 41374.6 3026.83)" r="190.61"/>
  <circle class="fil0 str0" transform="matrix(6.87895E-14 -2.59735 2.59735 6.87895E-14 34840 3199.67)" r="190.61"/>
  <circle class="fil0 str0" transform="matrix(5.21745E-14 -1.97 1.97 5.21745E-14 42599 3026.83)" r="190.61"/>
  <circle class="fil0 str0" transform="matrix(6.87895E-14 -2.59735 2.59735 6.87895E-14 36064.3 3199.67)" r="190.61"/>
  <circle class="fil0 str0" transform="matrix(5.21745E-14 -1.97 1.97 5.21745E-14 43823.3 3026.83)" r="190.61"/>
  <circle class="fil0 str0" transform="matrix(6.87895E-14 -2.59735 2.59735 6.87895E-14 37288.6 3199.67)" r="190.61"/>
  <circle class="fil0 str0" transform="matrix(5.21745E-14 -1.97 1.97 5.21745E-14 45047.6 3026.83)" r="190.61"/>
  <circle class="fil0 str0" transform="matrix(6.87895E-14 -2.59735 2.59735 6.87895E-14 31166 1975.33)" r="190.61"/>
  <circle class="fil0 str0" transform="matrix(5.21745E-14 -1.97 1.97 5.21745E-14 38925 1802.5)" r="190.61"/>
  <circle class="fil0 str0" transform="matrix(6.87895E-14 -2.59735 2.59735 6.87895E-14 32391.3 1975.33)" r="190.61"/>
  <circle class="fil0 str0" transform="matrix(5.21745E-14 -1.97 1.97 5.21745E-14 40150.3 1802.5)" r="190.61"/>
  <circle class="fil0 str0" transform="matrix(6.87895E-14 -2.59735 2.59735 6.87895E-14 33615.7 1975.33)" r="190.61"/>
  <circle class="fil0 str0" transform="matrix(5.21745E-14 -1.97 1.97 5.21745E-14 41374.6 1802.5)" r="190.61"/>
  <circle class="fil0 str0" transform="matrix(6.87895E-14 -2.59735 2.59735 6.87895E-14 34840 1975.33)" r="190.61"/>
  <circle class="fil0 str0" transform="matrix(5.21745E-14 -1.97 1.97 5.21745E-14 42599 1802.5)" r="190.61"/>
  <circle class="fil0 str0" transform="matrix(6.87895E-14 -2.59735 2.59735 6.87895E-14 36064.3 1975.33)" r="190.61"/>
  <circle class="fil0 str0" transform="matrix(5.21745E-14 -1.97 1.97 5.21745E-14 43823.3 1802.5)" r="190.61"/>
  <circle class="fil0 str0" transform="matrix(6.87895E-14 -2.59735 2.59735 6.87895E-14 37288.6 1975.33)" r="190.61"/>
  <circle class="fil0 str0" transform="matrix(5.21745E-14 -1.97 1.97 5.21745E-14 45047.6 1802.5)" r="190.61"/>
 </g>
</svg>
