<?xml version="1.0" encoding="UTF-8"?>
<!DOCTYPE svg PUBLIC "-//W3C//DTD SVG 1.1//EN" "http://www.w3.org/Graphics/SVG/1.1/DTD/svg11.dtd">
<!-- Creator: CorelDRAW 2020 (64-Bit) -->
<svg xmlns="http://www.w3.org/2000/svg" xml:space="preserve" width="113.115mm" height="113.115mm" version="1.1" style="shape-rendering:geometricPrecision; text-rendering:geometricPrecision; image-rendering:optimizeQuality; fill-rule:evenodd; clip-rule:evenodd"
viewBox="0 0 5395.61 5395.6"
 xmlns:xlink="http://www.w3.org/1999/xlink"
 xmlns:xodm="http://www.corel.com/coreldraw/odm/2003">
 <defs>
  <style type="text/css">
   <![CDATA[
    .str0 {stroke:black;stroke-width:12.12;stroke-linecap:round;stroke-linejoin:round;stroke-miterlimit:10}
    .fil0 {fill:none;fill-rule:nonzero}
   ]]>
  </style>
 </defs>
 <g id="Capa_x0020_1">
  <metadata id="CorelCorpID_0Corel-Layer"/>
  <path class="fil0 str0" d="M1366.07 197.89c52.97,0 95.92,-42.94 95.92,-95.92 0,-52.97 -42.94,-95.92 -95.92,-95.92 -52.98,0 -95.92,42.94 -95.92,95.92 0,52.98 42.94,95.92 95.92,95.92"/>
  <path class="fil0 str0" d="M4029.54 197.89c52.97,0 95.92,-42.94 95.92,-95.92 0,-52.97 -42.94,-95.92 -95.92,-95.92 -52.98,0 -95.92,42.94 -95.92,95.92 0,52.98 42.94,95.92 95.92,95.92"/>
  <path class="fil0 str0" d="M5293.63 1461.98c52.98,0 95.92,-42.94 95.92,-95.92 0,-52.98 -42.94,-95.92 -95.92,-95.92 -52.97,0 -95.92,42.94 -95.92,95.92 0,52.97 42.94,95.92 95.92,95.92"/>
  <path class="fil0 str0" d="M5293.63 4125.46c52.98,0 95.92,-42.94 95.92,-95.92 0,-52.97 -42.94,-95.92 -95.92,-95.92 -52.97,0 -95.92,42.94 -95.92,95.92 0,52.98 42.94,95.92 95.92,95.92"/>
  <polyline class="fil0 str0" points="5343.1,5343.1 4912.99,4912.99 4912.99,484.64 484.64,484.64 54.52,56.54 "/>
  <path class="fil0 str0" d="M4029.54 5389.54c52.97,0 95.92,-42.94 95.92,-95.92 0,-52.97 -42.94,-95.92 -95.92,-95.92 -52.98,0 -95.92,42.94 -95.92,95.92 0,52.98 42.94,95.92 95.92,95.92"/>
  <path class="fil0 str0" d="M1366.07 5389.54c52.97,0 95.92,-42.94 95.92,-95.92 0,-52.97 -42.94,-95.92 -95.92,-95.92 -52.98,0 -95.92,42.94 -95.92,95.92 0,52.98 42.94,95.92 95.92,95.92"/>
  <path class="fil0 str0" d="M101.97 4125.46c52.98,0 95.92,-42.94 95.92,-95.92 0,-52.97 -42.94,-95.92 -95.92,-95.92 -52.97,0 -95.92,42.94 -95.92,95.92 0,52.98 42.94,95.92 95.92,95.92"/>
  <path class="fil0 str0" d="M101.97 1461.98c52.98,0 95.92,-42.94 95.92,-95.92 0,-52.98 -42.94,-95.92 -95.92,-95.92 -52.97,0 -95.92,42.94 -95.92,95.92 0,52.97 42.94,95.92 95.92,95.92"/>
  <polyline class="fil0 str0" points="484.64,484.64 484.64,4912.99 4912.99,4912.99 "/>
 </g>
</svg>
